<svg xmlns="http://www.w3.org/2000/svg" viewBox="0 0 1046.32 397.24">
  <style>
    .key-bg { fill: #f5f5f5; stroke: #d4d4d4; stroke-width: 1; }
    .key-index { fill: #171717; font-family: ui-monospace, SFMono-Regular, "SF Mono", Menlo, Consolas, "Liberation Mono", monospace; font-weight: 700; text-anchor: middle; dominant-baseline: central; }
    .key-part { font-family: system-ui, -apple-system, BlinkMacSystemFont, "Segoe UI", Roboto, sans-serif; text-anchor: middle; dominant-baseline: central; }
    @media (prefers-color-scheme: dark) {
      .key-bg { fill: #2a2a2a; stroke: #404040; }
      .key-index { fill: #e5e5e5; }
    }
    .key-bg.part-0 { stroke: #f59e0b; }
    .key-part.part-0 { fill: #f59e0b; }
    .key-bg.part-1 { stroke: #14b8a6; }
    .key-part.part-1 { fill: #14b8a6; }
    .key-bg.part-2 { stroke: #d946ef; }
    .key-part.part-2 { fill: #d946ef; }
  </style>
  <g>
    <path class="key-bg part-1" d="M 26.00,74.50 L 84.00,74.50 Q 88.00,74.50 88.00,78.50 L 88.00,136.50 Q 88.00,140.50 84.00,140.50 L 26.00,140.50 Q 22.00,140.50 22.00,136.50 L 22.00,78.50 Q 22.00,74.50 26.00,74.50 Z" />
    <path class="key-bg part-1" d="M 96.00,74.50 L 154.00,74.50 Q 158.00,74.50 158.00,78.50 L 158.00,136.50 Q 158.00,140.50 154.00,140.50 L 96.00,140.50 Q 92.00,140.50 92.00,136.50 L 92.00,78.50 Q 92.00,74.50 96.00,74.50 Z" />
    <path class="key-bg part-1" d="M 166.00,39.50 L 224.00,39.50 Q 228.00,39.50 228.00,43.50 L 228.00,101.50 Q 228.00,105.50 224.00,105.50 L 166.00,105.50 Q 162.00,105.50 162.00,101.50 L 162.00,43.50 Q 162.00,39.50 166.00,39.50 Z" />
    <path class="key-bg part-1" d="M 236.00,22.00 L 294.00,22.00 Q 298.00,22.00 298.00,26.00 L 298.00,84.00 Q 298.00,88.00 294.00,88.00 L 236.00,88.00 Q 232.00,88.00 232.00,84.00 L 232.00,26.00 Q 232.00,22.00 236.00,22.00 Z" />
    <path class="key-bg part-1" d="M 306.00,39.50 L 364.00,39.50 Q 368.00,39.50 368.00,43.50 L 368.00,101.50 Q 368.00,105.50 364.00,105.50 L 306.00,105.50 Q 302.00,105.50 302.00,101.50 L 302.00,43.50 Q 302.00,39.50 306.00,39.50 Z" />
    <path class="key-bg part-1" d="M 376.00,57.00 L 434.00,57.00 Q 438.00,57.00 438.00,61.00 L 438.00,119.00 Q 438.00,123.00 434.00,123.00 L 376.00,123.00 Q 372.00,123.00 372.00,119.00 L 372.00,61.00 Q 372.00,57.00 376.00,57.00 Z" />
    <path class="key-bg part-2" d="M 612.32,57.00 L 670.32,57.00 Q 674.32,57.00 674.32,61.00 L 674.32,119.00 Q 674.32,123.00 670.32,123.00 L 612.32,123.00 Q 608.32,123.00 608.32,119.00 L 608.32,61.00 Q 608.32,57.00 612.32,57.00 Z" />
    <path class="key-bg part-2" d="M 682.32,39.50 L 740.32,39.50 Q 744.32,39.50 744.32,43.50 L 744.32,101.50 Q 744.32,105.50 740.32,105.50 L 682.32,105.50 Q 678.32,105.50 678.32,101.50 L 678.32,43.50 Q 678.32,39.50 682.32,39.50 Z" />
    <path class="key-bg part-2" d="M 752.32,22.00 L 810.32,22.00 Q 814.32,22.00 814.32,26.00 L 814.32,84.00 Q 814.32,88.00 810.32,88.00 L 752.32,88.00 Q 748.32,88.00 748.32,84.00 L 748.32,26.00 Q 748.32,22.00 752.32,22.00 Z" />
    <path class="key-bg part-2" d="M 822.32,39.50 L 880.32,39.50 Q 884.32,39.50 884.32,43.50 L 884.32,101.50 Q 884.32,105.50 880.32,105.50 L 822.32,105.50 Q 818.32,105.50 818.32,101.50 L 818.32,43.50 Q 818.32,39.50 822.32,39.50 Z" />
    <path class="key-bg part-2" d="M 892.32,74.50 L 950.32,74.50 Q 954.32,74.50 954.32,78.50 L 954.32,136.50 Q 954.32,140.50 950.32,140.50 L 892.32,140.50 Q 888.32,140.50 888.32,136.50 L 888.32,78.50 Q 888.32,74.50 892.32,74.50 Z" />
    <path class="key-bg part-2" d="M 962.32,74.50 L 1020.32,74.50 Q 1024.32,74.50 1024.32,78.50 L 1024.32,136.50 Q 1024.32,140.50 1020.32,140.50 L 962.32,140.50 Q 958.32,140.50 958.32,136.50 L 958.32,78.50 Q 958.32,74.50 962.32,74.50 Z" />
    <path class="key-bg part-1" d="M 26.00,144.50 L 84.00,144.50 Q 88.00,144.50 88.00,148.50 L 88.00,206.50 Q 88.00,210.50 84.00,210.50 L 26.00,210.50 Q 22.00,210.50 22.00,206.50 L 22.00,148.50 Q 22.00,144.50 26.00,144.50 Z" />
    <path class="key-bg part-1" d="M 96.00,144.50 L 154.00,144.50 Q 158.00,144.50 158.00,148.50 L 158.00,206.50 Q 158.00,210.50 154.00,210.50 L 96.00,210.50 Q 92.00,210.50 92.00,206.50 L 92.00,148.50 Q 92.00,144.50 96.00,144.50 Z" />
    <path class="key-bg part-1" d="M 166.00,109.50 L 224.00,109.50 Q 228.00,109.50 228.00,113.50 L 228.00,171.50 Q 228.00,175.50 224.00,175.50 L 166.00,175.50 Q 162.00,175.50 162.00,171.50 L 162.00,113.50 Q 162.00,109.50 166.00,109.50 Z" />
    <path class="key-bg part-1" d="M 236.00,92.00 L 294.00,92.00 Q 298.00,92.00 298.00,96.00 L 298.00,154.00 Q 298.00,158.00 294.00,158.00 L 236.00,158.00 Q 232.00,158.00 232.00,154.00 L 232.00,96.00 Q 232.00,92.00 236.00,92.00 Z" />
    <path class="key-bg part-1" d="M 306.00,109.50 L 364.00,109.50 Q 368.00,109.50 368.00,113.50 L 368.00,171.50 Q 368.00,175.50 364.00,175.50 L 306.00,175.50 Q 302.00,175.50 302.00,171.50 L 302.00,113.50 Q 302.00,109.50 306.00,109.50 Z" />
    <path class="key-bg part-1" d="M 376.00,127.00 L 434.00,127.00 Q 438.00,127.00 438.00,131.00 L 438.00,189.00 Q 438.00,193.00 434.00,193.00 L 376.00,193.00 Q 372.00,193.00 372.00,189.00 L 372.00,131.00 Q 372.00,127.00 376.00,127.00 Z" />
    <path class="key-bg part-2" d="M 612.32,127.00 L 670.32,127.00 Q 674.32,127.00 674.32,131.00 L 674.32,189.00 Q 674.32,193.00 670.32,193.00 L 612.32,193.00 Q 608.32,193.00 608.32,189.00 L 608.32,131.00 Q 608.32,127.00 612.32,127.00 Z" />
    <path class="key-bg part-2" d="M 682.32,109.50 L 740.32,109.50 Q 744.32,109.50 744.32,113.50 L 744.32,171.50 Q 744.32,175.50 740.32,175.50 L 682.32,175.50 Q 678.32,175.50 678.32,171.50 L 678.32,113.50 Q 678.32,109.50 682.32,109.50 Z" />
    <path class="key-bg part-2" d="M 752.32,92.00 L 810.32,92.00 Q 814.32,92.00 814.32,96.00 L 814.32,154.00 Q 814.32,158.00 810.32,158.00 L 752.32,158.00 Q 748.32,158.00 748.32,154.00 L 748.32,96.00 Q 748.32,92.00 752.32,92.00 Z" />
    <path class="key-bg part-2" d="M 822.32,109.50 L 880.32,109.50 Q 884.32,109.50 884.32,113.50 L 884.32,171.50 Q 884.32,175.50 880.32,175.50 L 822.32,175.50 Q 818.32,175.50 818.32,171.50 L 818.32,113.50 Q 818.32,109.50 822.32,109.50 Z" />
    <path class="key-bg part-2" d="M 892.32,144.50 L 950.32,144.50 Q 954.32,144.50 954.32,148.50 L 954.32,206.50 Q 954.32,210.50 950.32,210.50 L 892.32,210.50 Q 888.32,210.50 888.32,206.50 L 888.32,148.50 Q 888.32,144.50 892.32,144.50 Z" />
    <path class="key-bg part-2" d="M 962.32,144.50 L 1020.32,144.50 Q 1024.32,144.50 1024.32,148.50 L 1024.32,206.50 Q 1024.32,210.50 1020.32,210.50 L 962.32,210.50 Q 958.32,210.50 958.32,206.50 L 958.32,148.50 Q 958.32,144.50 962.32,144.50 Z" />
    <path class="key-bg part-1" d="M 26.00,214.50 L 84.00,214.50 Q 88.00,214.50 88.00,218.50 L 88.00,276.50 Q 88.00,280.50 84.00,280.50 L 26.00,280.50 Q 22.00,280.50 22.00,276.50 L 22.00,218.50 Q 22.00,214.50 26.00,214.50 Z" />
    <path class="key-bg part-1" d="M 96.00,214.50 L 154.00,214.50 Q 158.00,214.50 158.00,218.50 L 158.00,276.50 Q 158.00,280.50 154.00,280.50 L 96.00,280.50 Q 92.00,280.50 92.00,276.50 L 92.00,218.50 Q 92.00,214.50 96.00,214.50 Z" />
    <path class="key-bg part-1" d="M 166.00,179.50 L 224.00,179.50 Q 228.00,179.50 228.00,183.50 L 228.00,241.50 Q 228.00,245.50 224.00,245.50 L 166.00,245.50 Q 162.00,245.50 162.00,241.50 L 162.00,183.50 Q 162.00,179.50 166.00,179.50 Z" />
    <path class="key-bg part-1" d="M 236.00,162.00 L 294.00,162.00 Q 298.00,162.00 298.00,166.00 L 298.00,224.00 Q 298.00,228.00 294.00,228.00 L 236.00,228.00 Q 232.00,228.00 232.00,224.00 L 232.00,166.00 Q 232.00,162.00 236.00,162.00 Z" />
    <path class="key-bg part-1" d="M 306.00,179.50 L 364.00,179.50 Q 368.00,179.50 368.00,183.50 L 368.00,241.50 Q 368.00,245.50 364.00,245.50 L 306.00,245.50 Q 302.00,245.50 302.00,241.50 L 302.00,183.50 Q 302.00,179.50 306.00,179.50 Z" />
    <path class="key-bg part-1" d="M 376.00,197.00 L 434.00,197.00 Q 438.00,197.00 438.00,201.00 L 438.00,259.00 Q 438.00,263.00 434.00,263.00 L 376.00,263.00 Q 372.00,263.00 372.00,259.00 L 372.00,201.00 Q 372.00,197.00 376.00,197.00 Z" />
    <path class="key-bg part-2" d="M 612.32,197.00 L 670.32,197.00 Q 674.32,197.00 674.32,201.00 L 674.32,259.00 Q 674.32,263.00 670.32,263.00 L 612.32,263.00 Q 608.32,263.00 608.32,259.00 L 608.32,201.00 Q 608.32,197.00 612.32,197.00 Z" />
    <path class="key-bg part-2" d="M 682.32,179.50 L 740.32,179.50 Q 744.32,179.50 744.32,183.50 L 744.32,241.50 Q 744.32,245.50 740.32,245.50 L 682.32,245.50 Q 678.32,245.50 678.32,241.50 L 678.32,183.50 Q 678.32,179.50 682.32,179.50 Z" />
    <path class="key-bg part-2" d="M 752.32,162.00 L 810.32,162.00 Q 814.32,162.00 814.32,166.00 L 814.32,224.00 Q 814.32,228.00 810.32,228.00 L 752.32,228.00 Q 748.32,228.00 748.32,224.00 L 748.32,166.00 Q 748.32,162.00 752.32,162.00 Z" />
    <path class="key-bg part-2" d="M 822.32,179.50 L 880.32,179.50 Q 884.32,179.50 884.32,183.50 L 884.32,241.50 Q 884.32,245.50 880.32,245.50 L 822.32,245.50 Q 818.32,245.50 818.32,241.50 L 818.32,183.50 Q 818.32,179.50 822.32,179.50 Z" />
    <path class="key-bg part-2" d="M 892.32,214.50 L 950.32,214.50 Q 954.32,214.50 954.32,218.50 L 954.32,276.50 Q 954.32,280.50 950.32,280.50 L 892.32,280.50 Q 888.32,280.50 888.32,276.50 L 888.32,218.50 Q 888.32,214.50 892.32,214.50 Z" />
    <path class="key-bg part-2" d="M 962.32,214.50 L 1020.32,214.50 Q 1024.32,214.50 1024.32,218.50 L 1024.32,276.50 Q 1024.32,280.50 1020.32,280.50 L 962.32,280.50 Q 958.32,280.50 958.32,276.50 L 958.32,218.50 Q 958.32,214.50 962.32,214.50 Z" />
    <path class="key-bg part-1" d="M 294.52,265.95 L 352.52,265.95 Q 356.52,265.95 356.52,269.95 L 356.52,327.95 Q 356.52,331.95 352.52,331.95 L 294.52,331.95 Q 290.52,331.95 290.52,327.95 L 290.52,269.95 Q 290.52,265.95 294.52,265.95 Z" />
    <path class="key-bg part-1" d="M 375.87,268.35 L 432.99,278.42 Q 436.93,279.11 436.23,283.05 L 426.16,340.17 Q 425.47,344.11 421.53,343.41 L 364.41,333.34 Q 360.47,332.65 361.17,328.71 L 371.24,271.59 Q 371.93,267.65 375.87,268.35 Z" />
    <path class="key-bg part-1" d="M 460.84,288.57 L 513.41,313.08 Q 517.03,314.77 515.34,318.39 L 490.83,370.96 Q 489.14,374.58 485.52,372.89 L 432.95,348.38 Q 429.33,346.69 431.02,343.07 L 455.53,290.50 Q 457.22,286.88 460.84,288.57 Z" />
    <path class="key-bg part-2" d="M 532.98,313.08 L 585.55,288.57 Q 589.17,286.88 590.86,290.50 L 615.37,343.07 Q 617.06,346.69 613.44,348.38 L 560.87,372.89 Q 557.25,374.58 555.56,370.96 L 531.05,318.39 Q 529.36,314.77 532.98,313.08 Z" />
    <path class="key-bg part-2" d="M 613.33,278.42 L 670.45,268.35 Q 674.39,267.65 675.08,271.59 L 685.15,328.71 Q 685.85,332.65 681.91,333.34 L 624.79,343.41 Q 620.85,344.11 620.16,340.17 L 610.09,283.05 Q 609.39,279.11 613.33,278.42 Z" />
    <path class="key-bg part-2" d="M 693.80,265.95 L 751.80,265.95 Q 755.80,265.95 755.80,269.95 L 755.80,327.95 Q 755.80,331.95 751.80,331.95 L 693.80,331.95 Q 689.80,331.95 689.80,327.95 L 689.80,269.95 Q 689.80,265.95 693.80,265.95 Z" />
  </g>
  <g>
    <text class="key-index" x="55.00" y="95.86" font-size="26">0</text>
    <text class="key-part part-1" x="55.00" y="123.14" font-size="18">left</text>
    <text class="key-index" x="125.00" y="95.86" font-size="26">1</text>
    <text class="key-part part-1" x="125.00" y="123.14" font-size="18">left</text>
    <text class="key-index" x="195.00" y="60.86" font-size="26">2</text>
    <text class="key-part part-1" x="195.00" y="88.14" font-size="18">left</text>
    <text class="key-index" x="265.00" y="43.36" font-size="26">3</text>
    <text class="key-part part-1" x="265.00" y="70.64" font-size="18">left</text>
    <text class="key-index" x="335.00" y="60.86" font-size="26">4</text>
    <text class="key-part part-1" x="335.00" y="88.14" font-size="18">left</text>
    <text class="key-index" x="405.00" y="78.36" font-size="26">5</text>
    <text class="key-part part-1" x="405.00" y="105.64" font-size="18">left</text>
    <text class="key-index" x="641.32" y="78.36" font-size="26">6</text>
    <text class="key-part part-2" x="641.32" y="105.64" font-size="18">right</text>
    <text class="key-index" x="711.32" y="60.86" font-size="26">7</text>
    <text class="key-part part-2" x="711.32" y="88.14" font-size="18">right</text>
    <text class="key-index" x="781.32" y="43.36" font-size="26">8</text>
    <text class="key-part part-2" x="781.32" y="70.64" font-size="18">right</text>
    <text class="key-index" x="851.32" y="60.86" font-size="26">9</text>
    <text class="key-part part-2" x="851.32" y="88.14" font-size="18">right</text>
    <text class="key-index" x="921.32" y="95.86" font-size="26">10</text>
    <text class="key-part part-2" x="921.32" y="123.14" font-size="18">right</text>
    <text class="key-index" x="991.32" y="95.86" font-size="26">11</text>
    <text class="key-part part-2" x="991.32" y="123.14" font-size="18">right</text>
    <text class="key-index" x="55.00" y="165.86" font-size="26">12</text>
    <text class="key-part part-1" x="55.00" y="193.14" font-size="18">left</text>
    <text class="key-index" x="125.00" y="165.86" font-size="26">13</text>
    <text class="key-part part-1" x="125.00" y="193.14" font-size="18">left</text>
    <text class="key-index" x="195.00" y="130.86" font-size="26">14</text>
    <text class="key-part part-1" x="195.00" y="158.14" font-size="18">left</text>
    <text class="key-index" x="265.00" y="113.36" font-size="26">15</text>
    <text class="key-part part-1" x="265.00" y="140.64" font-size="18">left</text>
    <text class="key-index" x="335.00" y="130.86" font-size="26">16</text>
    <text class="key-part part-1" x="335.00" y="158.14" font-size="18">left</text>
    <text class="key-index" x="405.00" y="148.36" font-size="26">17</text>
    <text class="key-part part-1" x="405.00" y="175.64" font-size="18">left</text>
    <text class="key-index" x="641.32" y="148.36" font-size="26">18</text>
    <text class="key-part part-2" x="641.32" y="175.64" font-size="18">right</text>
    <text class="key-index" x="711.32" y="130.86" font-size="26">19</text>
    <text class="key-part part-2" x="711.32" y="158.14" font-size="18">right</text>
    <text class="key-index" x="781.32" y="113.36" font-size="26">20</text>
    <text class="key-part part-2" x="781.32" y="140.64" font-size="18">right</text>
    <text class="key-index" x="851.32" y="130.86" font-size="26">21</text>
    <text class="key-part part-2" x="851.32" y="158.14" font-size="18">right</text>
    <text class="key-index" x="921.32" y="165.86" font-size="26">22</text>
    <text class="key-part part-2" x="921.32" y="193.14" font-size="18">right</text>
    <text class="key-index" x="991.32" y="165.86" font-size="26">23</text>
    <text class="key-part part-2" x="991.32" y="193.14" font-size="18">right</text>
    <text class="key-index" x="55.00" y="235.86" font-size="26">24</text>
    <text class="key-part part-1" x="55.00" y="263.14" font-size="18">left</text>
    <text class="key-index" x="125.00" y="235.86" font-size="26">25</text>
    <text class="key-part part-1" x="125.00" y="263.14" font-size="18">left</text>
    <text class="key-index" x="195.00" y="200.86" font-size="26">26</text>
    <text class="key-part part-1" x="195.00" y="228.14" font-size="18">left</text>
    <text class="key-index" x="265.00" y="183.36" font-size="26">27</text>
    <text class="key-part part-1" x="265.00" y="210.64" font-size="18">left</text>
    <text class="key-index" x="335.00" y="200.86" font-size="26">28</text>
    <text class="key-part part-1" x="335.00" y="228.14" font-size="18">left</text>
    <text class="key-index" x="405.00" y="218.36" font-size="26">29</text>
    <text class="key-part part-1" x="405.00" y="245.64" font-size="18">left</text>
    <text class="key-index" x="641.32" y="218.36" font-size="26">30</text>
    <text class="key-part part-2" x="641.32" y="245.64" font-size="18">right</text>
    <text class="key-index" x="711.32" y="200.86" font-size="26">31</text>
    <text class="key-part part-2" x="711.32" y="228.14" font-size="18">right</text>
    <text class="key-index" x="781.32" y="183.36" font-size="26">32</text>
    <text class="key-part part-2" x="781.32" y="210.64" font-size="18">right</text>
    <text class="key-index" x="851.32" y="200.86" font-size="26">33</text>
    <text class="key-part part-2" x="851.32" y="228.14" font-size="18">right</text>
    <text class="key-index" x="921.32" y="235.86" font-size="26">34</text>
    <text class="key-part part-2" x="921.32" y="263.14" font-size="18">right</text>
    <text class="key-index" x="991.32" y="235.86" font-size="26">35</text>
    <text class="key-part part-2" x="991.32" y="263.14" font-size="18">right</text>
    <text class="key-index" x="323.52" y="287.31" font-size="26">36</text>
    <text class="key-part part-1" x="323.52" y="314.59" font-size="18">left</text>
    <text class="key-index" x="398.70" y="294.24" font-size="26" transform="rotate(10 398.70 305.88)">37</text>
    <text class="key-part part-1" x="398.70" y="321.52" font-size="18" transform="rotate(10 398.70 305.88)">left</text>
    <text class="key-index" x="473.18" y="319.09" font-size="26" transform="rotate(25 473.18 330.73)">38</text>
    <text class="key-part part-1" x="473.18" y="346.37" font-size="18" transform="rotate(25 473.18 330.73)">left</text>
    <text class="key-index" x="573.21" y="319.09" font-size="26" transform="rotate(-25 573.21 330.73)">39</text>
    <text class="key-part part-2" x="573.21" y="346.37" font-size="18" transform="rotate(-25 573.21 330.73)">right</text>
    <text class="key-index" x="647.62" y="294.24" font-size="26" transform="rotate(-10 647.62 305.88)">40</text>
    <text class="key-part part-2" x="647.62" y="321.52" font-size="18" transform="rotate(-10 647.62 305.88)">right</text>
    <text class="key-index" x="722.80" y="287.31" font-size="26">41</text>
    <text class="key-part part-2" x="722.80" y="314.59" font-size="18">right</text>
  </g>
</svg>
